<svg xmlns="http://www.w3.org/2000/svg" width="30" height="30" fill="none" viewBox="0 0 30 30"><rect width="30" height="30" fill="#1E1E1E"/><path fill="#000" d="M15 30C23.2843 30 30 23.2843 30 15C30 6.71573 23.2843 0 15 0C6.71573 0 0 6.71573 0 15C0 23.2843 6.71573 30 15 30Z"/><path fill="#627EEA" d="M15 30C23.2843 30 30 23.2843 30 15C30 6.71573 23.2843 0 15 0C6.71573 0 0 6.71573 0 15C0 23.2843 6.71573 30 15 30Z"/><path style="mix-blend-mode:soft-light" fill="url(#paint0_linear_0_1)" d="M15 30C23.2843 30 30 23.2843 30 15C30 6.71573 23.2843 0 15 0C6.71573 0 0 6.71573 0 15C0 23.2843 6.71573 30 15 30Z"/><path stroke="#000" stroke-opacity=".097" d="M15 29.5C23.0081 29.5 29.5 23.0081 29.5 15C29.5 6.99187 23.0081 0.5 15 0.5C6.99187 0.5 0.5 6.99187 0.5 15C0.5 23.0081 6.99187 29.5 15 29.5Z"/><path fill="#fff" fill-opacity=".602" d="M15.2496 5V12.3932L21.4984 15.1855L15.2496 5Z"/><path fill="#fff" d="M15.2496 5L9 15.1855L15.2496 12.3932V5Z"/><path fill="#fff" fill-opacity=".602" d="M15.2496 19.9765V25L21.5026 16.349L15.2496 19.9765Z"/><path fill="#fff" d="M15.2496 25V19.9756L9 16.349L15.2496 25Z"/><path fill="#fff" fill-opacity=".2" d="M15.2496 18.8137L21.4984 15.1854L15.2496 12.3949V18.8137Z"/><path fill="#fff" fill-opacity=".602" d="M9 15.1854L15.2496 18.8137V12.3949L9 15.1854Z"/><defs><linearGradient id="paint0_linear_0_1" x1="15" x2="15" y1="0" y2="30" gradientUnits="userSpaceOnUse"><stop stop-color="#fff" stop-opacity=".5"/><stop offset="1" stop-opacity=".5"/></linearGradient></defs></svg>